<?xml version="1.0" encoding="UTF-8" standalone="no"?>
<!-- Created with Inkscape (http://www.inkscape.org/) -->

<svg
   width="1920"
   height="1080"
   viewBox="0 0 192 108"
   version="1.1"
   id="svg1"
   sodipodi:docname="inkscape.svg"
   xml:space="preserve"
   inkscape:version="1.3.2 (091e20e, 2023-11-25, custom)"
   xmlns:inkscape="http://www.inkscape.org/namespaces/inkscape"
   xmlns:sodipodi="http://sodipodi.sourceforge.net/DTD/sodipodi-0.dtd"
   xmlns:xlink="http://www.w3.org/1999/xlink"
   xmlns="http://www.w3.org/2000/svg"
   xmlns:svg="http://www.w3.org/2000/svg"><sodipodi:namedview
     id="namedview1"
     pagecolor="#505050"
     bordercolor="#ffffff"
     borderopacity="1"
     inkscape:showpageshadow="0"
     inkscape:pageopacity="0"
     inkscape:pagecheckerboard="1"
     inkscape:deskcolor="#505050"
     showgrid="false"
     inkscape:zoom="0.5"
     inkscape:cx="1142"
     inkscape:cy="675"
     inkscape:window-width="1920"
     inkscape:window-height="1009"
     inkscape:window-x="-8"
     inkscape:window-y="-8"
     inkscape:window-maximized="1"
     inkscape:current-layer="svg1" /><defs
     id="defs1"><linearGradient
       id="linearGradient4"
       inkscape:collect="always"><stop
         style="stop-color:#294998;stop-opacity:1;"
         offset="0"
         id="stop4" /><stop
         style="stop-color:#02fa12;stop-opacity:1;"
         offset="1"
         id="stop3" /></linearGradient><linearGradient
       id="linearGradient1"
       inkscape:collect="always"><stop
         style="stop-color:#02fa12;stop-opacity:1;"
         offset="0"
         id="stop2" /><stop
         style="stop-color:#294998;stop-opacity:1;"
         offset="1"
         id="stop1" /></linearGradient><linearGradient
       inkscape:collect="always"
       xlink:href="#linearGradient1"
       id="linearGradient2"
       x1="46.036059"
       y1="42.029352"
       x2="180.37415"
       y2="42.029352"
       gradientUnits="userSpaceOnUse"
       gradientTransform="matrix(1.0172899,0,0,1.0154831,-0.79018551,-0.24255068)" /><linearGradient
       inkscape:collect="always"
       xlink:href="#linearGradient4"
       id="linearGradient3"
       gradientUnits="userSpaceOnUse"
       gradientTransform="matrix(0.98353678,0,0,0.92589654,2.9853131,3.4134013)"
       x1="46.036059"
       y1="42.029352"
       x2="180.37415"
       y2="42.029352" /><filter
       inkscape:collect="always"
       style="color-interpolation-filters:sRGB"
       id="filter13"
       x="-0.0097572842"
       y="-0.091064991"
       width="1.0195782"
       height="1.1775551"><feGaussianBlur
         inkscape:collect="always"
         stdDeviation="0.46340056"
         id="feGaussianBlur13" /></filter><filter
       inkscape:collect="always"
       style="color-interpolation-filters:sRGB"
       id="filter17"
       x="-0.66303574"
       y="-0.68740398"
       width="2.3260715"
       height="2.374808"><feGaussianBlur
         inkscape:collect="always"
         stdDeviation="0.23231141"
         id="feGaussianBlur17" /></filter></defs><g
     id="layer1"
     inkscape:label="layer1"
     style="display:inline;stroke:#ffffff;stroke-opacity:1"><rect
       style="fill:#000000;stroke-width:0.1;stroke:#ffffff;stroke-opacity:1"
       id="background"
       width="192"
       height="108"
       x="0"
       y="0" /></g><path
     style="fill:none;fill-opacity:1;stroke:#43b64a;stroke-width:1.3;stroke-dasharray:none;stroke-opacity:1;filter:url(#filter13)"
     d="M 36.531371,41.204877 C 36.531371,41.204877 102.2,-1 188.4,39.8"
     id="path14"
     inkscape:label="arc1"
     sodipodi:nodetypes="cc" /><path
     style="fill:none;fill-opacity:1;stroke:#43b64a;stroke-width:1.3;stroke-dasharray:none;stroke-opacity:1;filter:url(#filter13)"
     d="M 37.531371,32.004877 C 37.531371,32.004877 100.8,-11.4 189.2,22"
     id="path13"
     inkscape:label="arc1"
     sodipodi:nodetypes="cc" /><path
     style="fill:none;fill-opacity:1;stroke:#43b64a;stroke-width:1.3;stroke-dasharray:none;stroke-opacity:1;filter:url(#filter13)"
     d="m 36.4,15.6 c 0,0 84,-31.8 153.2,9.6"
     id="path7"
     inkscape:label="arc1"
     sodipodi:nodetypes="cc" /><path
     style="fill:none;fill-opacity:1;stroke:#1f66ba;stroke-width:1.3;stroke-dasharray:none;stroke-opacity:1;filter:url(#filter13)"
     d="M 36.731371,37.404877 C 36.731371,37.404877 130,1.6 189.8,45.6"
     id="path16"
     inkscape:label="arc1"
     sodipodi:nodetypes="cc" /><path
     style="fill:none;fill-opacity:1;stroke:#1f66ba;stroke-width:1.3;stroke-dasharray:none;stroke-opacity:1;filter:url(#filter13)"
     d="M 36.131371,17.804877 C 36.131371,17.804877 128.8,-12.8 188.6,31.2"
     id="path15"
     inkscape:label="arc1"
     sodipodi:nodetypes="cc" /><rect
     style="fill:#3a6ff6;fill-opacity:1;stroke:#040c27;stroke-width:0.371571;stroke-dasharray:none;stroke-opacity:1"
     id="rect1"
     width="4"
     height="58"
     x="189"
     y="10"
     inkscape:label="right-big" /><rect
     style="fill:#3a6ff6;fill-opacity:1;stroke:#040c27;stroke-width:0.347903;stroke-dasharray:none;stroke-opacity:1"
     id="rect5"
     width="4"
     height="51"
     x="188"
     y="15"
     inkscape:label="right-little" /><rect
     style="fill:#3a6ff6;fill-opacity:1;stroke:#040c27;stroke-width:0.6271;stroke-dasharray:none;stroke-opacity:1"
     id="rect1-4"
     width="12"
     height="58"
     x="20"
     y="10"
     inkscape:label="left-biggest" /><rect
     style="fill:#02fa12;fill-opacity:1;stroke:#042708;stroke-width:0.427348;stroke-dasharray:none;stroke-opacity:1"
     id="rect4"
     width="6"
     height="53"
     x="30"
     y="12"
     inkscape:label="left-green" /><rect
     style="fill:#3a6ff6;fill-opacity:1;stroke:#040c27;stroke-width:0.371571;stroke-dasharray:none;stroke-opacity:1"
     id="rect7"
     width="4"
     height="58"
     x="33"
     y="10"
     inkscape:label="right-big" /><rect
     style="fill:#3a6ff6;fill-opacity:1;stroke:#040c27;stroke-width:0.347903;stroke-dasharray:none;stroke-opacity:1"
     id="rect6"
     width="4"
     height="51"
     x="34"
     y="15"
     inkscape:label="left-little" /><path
     style="fill:#000000;fill-opacity:0.896364;stroke:url(#linearGradient2);stroke-width:1.3;stroke-dasharray:none;stroke-opacity:1"
     d="m 55,15.8 h 116 v 12 h 9.4 V 57 H 171 V 68.2 H 55 V 57 H 45.6 V 27.8 H 55 Z"
     id="board-outer"
     sodipodi:nodetypes="ccccccccccccc" /><path
     style="fill:none;fill-opacity:1;stroke:url(#linearGradient3);stroke-width:1.22056;stroke-dasharray:none;stroke-opacity:1"
     d="m 57.4,18 h 111 v 12 h 9.6 v 24.8 h -9.6 V 66 H 57.4 V 54.8 H 48 V 30 h 9.4 z"
     id="path2"
     sodipodi:nodetypes="ccccccccccccc"
     inkscape:label="board-inner" /><ellipse
     style="opacity:0.941681;fill:#ffffff;fill-opacity:1;stroke-width:0.753905;filter:url(#filter17)"
     id="path17"
     cx="47.639164"
     cy="62.306068"
     rx="0.42045048"
     ry="0.40554565" /><ellipse
     style="opacity:0.941681;fill:#ffffff;fill-opacity:1;stroke-width:0.753905;filter:url(#filter17)"
     id="ellipse17"
     cx="41.664112"
     cy="59.265511"
     rx="0.42045048"
     ry="0.40554565" /><ellipse
     style="opacity:0.941681;fill:#ffffff;fill-opacity:1;stroke-width:0.753905;filter:url(#filter17)"
     id="ellipse18"
     cx="44.464111"
     cy="54.215511"
     rx="0.42045048"
     ry="0.40554565" /><ellipse
     style="opacity:0.941681;fill:#ffffff;fill-opacity:1;stroke-width:0.753905;filter:url(#filter17)"
     id="ellipse19"
     cx="40.114113"
     cy="50.265511"
     rx="0.42045048"
     ry="0.40554565" /><ellipse
     style="opacity:0.941681;fill:#ffffff;fill-opacity:1;stroke-width:0.753905;filter:url(#filter17)"
     id="ellipse20"
     cx="41.864113"
     cy="43.56551"
     rx="0.42045048"
     ry="0.40554565" /><ellipse
     style="opacity:0.941681;fill:#ffffff;fill-opacity:1;stroke-width:0.753905;filter:url(#filter17)"
     id="ellipse21"
     cx="43.064114"
     cy="31.91551"
     rx="0.42045048"
     ry="0.40554565" /><ellipse
     style="opacity:0.941681;fill:#ffffff;fill-opacity:1;stroke-width:0.753905;filter:url(#filter17)"
     id="ellipse22"
     cx="40.214115"
     cy="24.765511"
     rx="0.42045048"
     ry="0.40554565" /><ellipse
     style="opacity:0.941681;fill:#ffffff;fill-opacity:1;stroke-width:0.753905;filter:url(#filter17)"
     id="ellipse23"
     cx="40.614117"
     cy="19.66551"
     rx="0.42045048"
     ry="0.40554565" /><ellipse
     style="opacity:0.941681;fill:#ffffff;fill-opacity:1;stroke-width:0.753905;filter:url(#filter17)"
     id="ellipse24"
     cx="45.014118"
     cy="20.115511"
     rx="0.42045048"
     ry="0.40554565" /><ellipse
     style="opacity:0.941681;fill:#ffffff;fill-opacity:1;stroke-width:0.753905;filter:url(#filter17)"
     id="ellipse25"
     cx="48.564117"
     cy="19.865511"
     rx="0.42045048"
     ry="0.40554565" /><ellipse
     style="opacity:0.941681;fill:#ffffff;fill-opacity:1;stroke-width:0.753905;filter:url(#filter17)"
     id="ellipse26"
     cx="57.664116"
     cy="5.265511"
     rx="0.42045048"
     ry="0.40554565" /><ellipse
     style="opacity:0.941681;fill:#ffffff;fill-opacity:1;stroke-width:0.753905;filter:url(#filter17)"
     id="ellipse27"
     cx="77.814117"
     cy="7.3155112"
     rx="0.42045048"
     ry="0.40554565" /><ellipse
     style="opacity:0.941681;fill:#ffffff;fill-opacity:1;stroke-width:0.753905;filter:url(#filter17)"
     id="ellipse28"
     cx="90.664116"
     cy="9.4155111"
     rx="0.42045048"
     ry="0.40554565" /><ellipse
     style="opacity:0.941681;fill:#ffffff;fill-opacity:1;stroke-width:0.753905;filter:url(#filter17)"
     id="ellipse29"
     cx="104.86411"
     cy="6.015511"
     rx="0.42045048"
     ry="0.40554565" /><ellipse
     style="opacity:0.941681;fill:#ffffff;fill-opacity:1;stroke-width:0.753905;filter:url(#filter17)"
     id="ellipse30"
     cx="120.51411"
     cy="6.9655108"
     rx="0.42045048"
     ry="0.40554565" /><ellipse
     style="opacity:0.941681;fill:#ffffff;fill-opacity:1;stroke-width:0.753905;filter:url(#filter17)"
     id="ellipse31"
     cx="141.0641"
     cy="8.5655107"
     rx="0.42045048"
     ry="0.40554565" /><ellipse
     style="opacity:0.941681;fill:#ffffff;fill-opacity:1;stroke-width:0.753905;filter:url(#filter17)"
     id="ellipse32"
     cx="144.61411"
     cy="4.5655107"
     rx="0.42045048"
     ry="0.40554565" /><ellipse
     style="opacity:0.941681;fill:#ffffff;fill-opacity:1;stroke-width:0.753905;filter:url(#filter17)"
     id="ellipse33"
     cx="152.8141"
     cy="6.0655107"
     rx="0.42045048"
     ry="0.40554565" /><ellipse
     style="opacity:0.941681;fill:#ffffff;fill-opacity:1;stroke-width:0.753905;filter:url(#filter17)"
     id="ellipse34"
     cx="158.9641"
     cy="7.8655109"
     rx="0.42045048"
     ry="0.40554565" /><ellipse
     style="opacity:0.941681;fill:#ffffff;fill-opacity:1;stroke-width:0.753905;filter:url(#filter17)"
     id="ellipse35"
     cx="166.7141"
     cy="5.3655109"
     rx="0.42045048"
     ry="0.40554565" /><ellipse
     style="opacity:0.941681;fill:#ffffff;fill-opacity:1;stroke-width:0.753905;filter:url(#filter17)"
     id="ellipse36"
     cx="172.5641"
     cy="12.265511"
     rx="0.42045048"
     ry="0.40554565" /><ellipse
     style="opacity:0.941681;fill:#ffffff;fill-opacity:1;stroke-width:0.753905;filter:url(#filter17)"
     id="ellipse37"
     cx="181.4641"
     cy="13.815511"
     rx="0.42045048"
     ry="0.40554565" /><ellipse
     style="opacity:0.941681;fill:#ffffff;fill-opacity:1;stroke-width:0.753905;filter:url(#filter17)"
     id="ellipse38"
     cx="185.16409"
     cy="17.815512"
     rx="0.42045048"
     ry="0.40554565" /><ellipse
     style="opacity:0.941681;fill:#ffffff;fill-opacity:1;stroke-width:0.753905;filter:url(#filter17)"
     id="ellipse39"
     cx="175.86409"
     cy="19.915512"
     rx="0.42045048"
     ry="0.40554565" /><ellipse
     style="opacity:0.941681;fill:#ffffff;fill-opacity:1;stroke-width:0.753905;filter:url(#filter17)"
     id="ellipse40"
     cx="180.11409"
     cy="22.065512"
     rx="0.42045048"
     ry="0.40554565" /><ellipse
     style="opacity:0.941681;fill:#ffffff;fill-opacity:1;stroke-width:0.753905;filter:url(#filter17)"
     id="ellipse41"
     cx="184.4641"
     cy="24.465511"
     rx="0.42045048"
     ry="0.40554565" /><ellipse
     style="opacity:0.941681;fill:#ffffff;fill-opacity:1;stroke-width:0.753905;filter:url(#filter17)"
     id="ellipse42"
     cx="181.61409"
     cy="31.815512"
     rx="0.42045048"
     ry="0.40554565" /><ellipse
     style="opacity:0.941681;fill:#ffffff;fill-opacity:1;stroke-width:0.753905;filter:url(#filter17)"
     id="ellipse43"
     cx="182.66409"
     cy="43.315514"
     rx="0.42045048"
     ry="0.40554565" /><ellipse
     style="opacity:0.941681;fill:#ffffff;fill-opacity:1;stroke-width:0.753905;filter:url(#filter17)"
     id="ellipse44"
     cx="184.56409"
     cy="50.265514"
     rx="0.42045048"
     ry="0.40554565" /><ellipse
     style="opacity:0.941681;fill:#ffffff;fill-opacity:1;stroke-width:0.753905;filter:url(#filter17)"
     id="ellipse45"
     cx="182.91409"
     cy="59.265514"
     rx="0.42045048"
     ry="0.40554565" /><ellipse
     style="opacity:0.941681;fill:#ffffff;fill-opacity:1;stroke-width:0.753905;filter:url(#filter17)"
     id="ellipse46"
     cx="185.36409"
     cy="62.415516"
     rx="0.42045048"
     ry="0.40554565" /><ellipse
     style="opacity:0.941681;fill:#ffffff;fill-opacity:1;stroke-width:0.753905;filter:url(#filter17)"
     id="ellipse47"
     cx="177.26408"
     cy="62.265514"
     rx="0.42045048"
     ry="0.40554565" /><ellipse
     style="opacity:0.941681;fill:#ffffff;fill-opacity:1;stroke-width:0.753905;filter:url(#filter17)"
     id="ellipse48"
     cx="185.06409"
     cy="71.215515"
     rx="0.42045048"
     ry="0.40554565" /><ellipse
     style="opacity:0.941681;fill:#ffffff;fill-opacity:1;stroke-width:0.753905;filter:url(#filter17)"
     id="ellipse49"
     cx="182.56409"
     cy="74.365517"
     rx="0.42045048"
     ry="0.40554565" /><ellipse
     style="opacity:0.941681;fill:#ffffff;fill-opacity:1;stroke-width:0.753905;filter:url(#filter17)"
     id="ellipse50"
     cx="177.01408"
     cy="71.565514"
     rx="0.42045048"
     ry="0.40554565" /><ellipse
     style="opacity:0.941681;fill:#ffffff;fill-opacity:1;stroke-width:0.753905;filter:url(#filter17)"
     id="ellipse51"
     cx="177.66408"
     cy="76.265511"
     rx="0.42045048"
     ry="0.40554565" /><ellipse
     style="opacity:0.941681;fill:#ffffff;fill-opacity:1;stroke-width:0.753905;filter:url(#filter17)"
     id="ellipse52"
     cx="173.66408"
     cy="76.465508"
     rx="0.42045048"
     ry="0.40554565" /><ellipse
     style="opacity:0.941681;fill:#ffffff;fill-opacity:1;stroke-width:0.753905;filter:url(#filter17)"
     id="ellipse53"
     cx="184.46408"
     cy="83.515511"
     rx="0.42045048"
     ry="0.40554565" /><ellipse
     style="opacity:0.941681;fill:#ffffff;fill-opacity:1;stroke-width:0.753905;filter:url(#filter17)"
     id="ellipse54"
     cx="182.76408"
     cy="90.065514"
     rx="0.42045048"
     ry="0.40554565" /><ellipse
     style="opacity:0.941681;fill:#ffffff;fill-opacity:1;stroke-width:0.753905;filter:url(#filter17)"
     id="ellipse55"
     cx="47.689163"
     cy="71.256065"
     rx="0.42045048"
     ry="0.40554565" /><ellipse
     style="opacity:0.941681;fill:#ffffff;fill-opacity:1;stroke-width:0.753905;filter:url(#filter17)"
     id="ellipse56"
     cx="42.039162"
     cy="74.506065"
     rx="0.42045048"
     ry="0.40554565" /><ellipse
     style="opacity:0.941681;fill:#ffffff;fill-opacity:1;stroke-width:0.753905;filter:url(#filter17)"
     id="ellipse57"
     cx="46.63916"
     cy="76.356064"
     rx="0.42045048"
     ry="0.40554565" /><ellipse
     style="opacity:0.941681;fill:#ffffff;fill-opacity:1;stroke-width:0.753905;filter:url(#filter17)"
     id="ellipse58"
     cx="44.63916"
     cy="79.556061"
     rx="0.42045048"
     ry="0.40554565" /><ellipse
     style="opacity:0.941681;fill:#ffffff;fill-opacity:1;stroke-width:0.753905;filter:url(#filter17)"
     id="ellipse59"
     cx="40.239159"
     cy="83.256058"
     rx="0.42045048"
     ry="0.40554565" /><ellipse
     style="opacity:0.941681;fill:#ffffff;fill-opacity:1;stroke-width:0.753905;filter:url(#filter17)"
     id="ellipse60"
     cx="42.039158"
     cy="90.406059"
     rx="0.42045048"
     ry="0.40554565" /><path
     style="opacity:0.941681;fill:#e577ca;fill-opacity:1;stroke:none;stroke-width:0.1;stroke-opacity:1"
     d="m 160.79608,84.969971 7.2832,3.452691 0.6364,-1.119239 -6.57609,-5.23259 z"
     id="path62"
     sodipodi:nodetypes="ccccc" /><path
     style="opacity:0.941681;fill:#999900;fill-opacity:1;stroke:none"
     d="m 159.73542,88.422662 0.98995,-3.523402 7.55391,3.523402 z"
     id="path63"
     sodipodi:nodetypes="cccc" /><path
     style="opacity:0.941681;fill:#e40606;fill-opacity:1;stroke:none;stroke-width:0.1;stroke-opacity:1"
     d="m 162.13959,82.070833 2.47487,-2.545584 4.87904,6.929646 -0.84853,0.98995 z"
     id="path64" /><path
     style="opacity:0.941681;fill:#05aee6;fill-opacity:1;stroke:none;stroke-width:0.1;stroke-opacity:1"
     d="m 164.41446,79.39596 3.02843,-1.697057 3.04056,8.261018 -0.98995,0.494974 z"
     id="path65"
     sodipodi:nodetypes="ccccc" /><path
     style="opacity:0.941681;fill:#06ee03;fill-opacity:1;stroke:none;stroke-width:0.1;stroke-opacity:1"
     d="m 167.40753,77.934259 3.14663,-0.98995 1.0253,8.838835 -1.13137,0.141421 z"
     id="path66" /><path
     style="opacity:0.941681;fill:#d870bf;fill-opacity:1;stroke:none;stroke-width:0.1;stroke-opacity:1"
     d="m 170.5188,76.908954 3.21734,0.106066 -1.20209,8.626703 -0.98994,-0.106066 z"
     id="path67" /><path
     style="opacity:0.941681;fill:#070707;fill-opacity:1;stroke:none;stroke-width:0.1;stroke-opacity:1"
     d="m 173.73614,76.944309 3.11127,0.954594 -3.14663,8.061018 -1.16673,-0.318198 z"
     id="path68" /><path
     style="opacity:0.941681;fill:#ae76e6;fill-opacity:1;stroke:none;stroke-width:0.1;stroke-opacity:1"
     d="m 176.81205,77.898903 2.89914,1.767767 -4.9851,6.858936 -1.06066,-0.601041 z"
     id="path69" /><path
     style="opacity:0.941681;fill:#e5e505;fill-opacity:1;stroke:none;stroke-width:0.1;stroke-opacity:1"
     d="m 179.71119,79.66667 2.22739,2.545585 -6.43468,4.949747 -0.81317,-0.636396 z"
     id="path70" /><path
     style="opacity:0.941681;fill:#05a4d9;fill-opacity:1;stroke:none;stroke-width:0.1;stroke-opacity:1"
     d="m 181.90322,82.141544 1.62635,2.863782 -7.45998,3.358758 -0.56569,-1.237437 z"
     id="path71" /><path
     style="opacity:0.941681;fill:#d2cecf;fill-opacity:1;stroke:none;stroke-width:0.1;stroke-opacity:1"
     d="m 183.45885,85.040682 0.76747,3.327691 -8.22744,-0.0043 z"
     id="path72"
     sodipodi:nodetypes="cccc" /><path
     style="opacity:1;fill:none;fill-opacity:1;stroke:#8b8351;stroke-width:0.56692913;stroke-opacity:0.99215686"
     d="m 159.65,88.4 c 0,0 1.35,-11.4 12.2,-11.5 10.85,-0.1 12.4,11.5 12.4,11.5"
     id="path73" /><path
     style="opacity:1;fill:#00ff00;fill-opacity:1;stroke:none;stroke-width:0.12831;stroke-opacity:0.992157"
     d="m 176.05897,88.416111 a 4.0786604,4.0786604 0 0 0 -8.15722,-0.03982 z"
     id="path74"
     sodipodi:nodetypes="csc" /><path
     style="opacity:0.941681;fill:none;fill-opacity:1;stroke-width:0.1;stroke:#ffffff;stroke-opacity:1"
     d="m 0,88.3 191.9,0.1"
     id="path60"
     sodipodi:nodetypes="cc" /><path
     fill="currentColor"
     d="m 165.34011,80.916132 1.22857,0.79182 -0.30379,0.500053 q -0.54976,-0.179371 -0.97095,-0.108742 -0.42122,0.07064 -0.71637,0.344109 -0.19085,0.17683 -0.22873,0.356281 -0.0379,0.179454 0.0505,0.274871 0.10076,0.108737 0.28697,0.109409 0.18394,0.0028 0.51372,-0.166653 l 0.75509,-0.377938 q 0.62647,-0.316492 1.05525,-0.276601 0.4286,0.04417 0.72056,0.359297 0.37216,0.401666 0.30962,0.975141 -0.0735,0.637279 -0.60392,1.12869 -0.24632,0.228226 -0.5113,0.356185 -0.26499,0.127978 -0.62689,0.186972 l 0.10805,0.31232 -0.33066,0.306359 -1.33205,-0.996997 0.32245,-0.484354 q 0.48573,0.230447 1.02249,0.188846 0.53677,-0.04161 0.90737,-0.384988 0.16645,-0.154212 0.23723,-0.298153 0.0708,-0.143947 0.0564,-0.270795 -0.0144,-0.126899 -0.0884,-0.206787 -0.12337,-0.13315 -0.34049,-0.109316 -0.21934,0.02588 -0.63191,0.234923 l -0.65688,0.328175 q -0.14846,0.07569 -0.43462,0.169674 -0.28616,0.09398 -0.48631,0.09384 -0.2002,-1.05e-4 -0.41614,-0.09078 -0.21596,-0.09066 -0.37634,-0.263752 -0.22823,-0.246324 -0.284,-0.580264 -0.0558,-0.333936 0.099,-0.71658 0.15481,-0.382641 0.48768,-0.691058 0.40167,-0.372162 0.91894,-0.463748 l -0.0573,-0.235556 z"
     id="path1"
     style="fill:#ffffff;stroke:#000000;stroke-width:0.283465" /><path
     fill="currentColor"
     d="m 167.77972,79.415513 2.09887,-0.752272 q 0.39869,-0.142896 0.69122,-0.156153 0.29252,-0.01325 0.54111,0.08404 0.24858,0.0973 0.43225,0.286959 0.18371,0.189645 0.27456,0.443105 0.18271,0.509769 -0.0854,0.994713 -0.26808,0.484942 -0.95726,0.731952 l -0.67779,0.242934 0.2664,0.743294 q 0.05,0.139545 0.0833,0.169382 0.045,0.04493 0.1069,0.05167 0.0619,0.0067 0.18719,-0.03817 l 0.2022,-0.07247 0.197,0.549639 -1.93655,0.694091 -0.197,-0.549638 0.13391,-0.048 q 0.17657,-0.06329 0.22434,-0.109335 0.0478,-0.04605 0.0535,-0.110763 0.006,-0.06471 -0.0566,-0.23843 l -0.78289,-2.184314 q -0.0653,-0.182265 -0.10903,-0.232481 -0.0437,-0.05021 -0.1033,-0.05939 -0.0596,-0.0092 -0.19908,0.04083 l -0.19079,0.06838 z m 1.69082,0.126706 0.40421,1.127754 0.33889,-0.121463 q 0.31041,-0.111258 0.4327,-0.227388 0.12228,-0.116126 0.1631,-0.280202 0.0408,-0.16407 -0.0245,-0.346338 -0.098,-0.273394 -0.36591,-0.357337 -0.1995,-0.06347 -0.50706,0.04677 z"
     id="path1-8"
     style="fill:#ffffff;stroke:#000000;stroke-width:0.283465" /><path
     fill="currentColor"
     d="m 173.58249,78.460786 2.00653,0.453698 -0.12877,0.5695 -0.18295,-0.04137 q -0.15935,-0.03603 -0.21732,-0.01966 -0.058,0.01634 -0.0967,0.07119 -0.0389,0.05479 -0.0775,0.225944 l -0.51508,2.277995 q -0.042,0.185898 -0.0334,0.243666 0.008,0.05784 0.0535,0.09276 0.054,0.04941 0.17789,0.07743 l 0.21835,0.04937 -0.12877,0.569499 -2.00651,-0.453693 0.12877,-0.5695 0.16228,0.0367 q 0.1741,0.03936 0.23289,0.0263 0.0588,-0.01306 0.0962,-0.06198 0.0375,-0.04889 0.0742,-0.211192 l 0.51708,-2.286849 q 0.0434,-0.191802 0.0319,-0.257981 -0.011,-0.06621 -0.063,-0.111929 -0.036,-0.03295 -0.19531,-0.06898 l -0.18296,-0.04137 z"
     id="path1-7"
     style="fill:#ffffff;stroke:#000000;stroke-width:0.283465" /><path
     fill="currentColor"
     d="m 178.417,80.594448 1.16281,1.26104 -0.97161,2.578986 1.10758,-1.021302 q 0.14233,-0.131254 0.16348,-0.179725 0.033,-0.07142 0.0188,-0.128721 -0.0137,-0.05726 -0.11423,-0.166257 l -0.13946,-0.151237 0.42925,-0.395807 1.18126,1.281052 -0.42924,0.395806 -0.13125,-0.142341 q -0.0985,-0.106754 -0.16495,-0.129786 -0.0665,-0.02309 -0.12522,-0.002 -0.0587,0.02118 -0.19878,0.150375 l -2.39975,2.212824 -0.58857,-0.638295 1.22401,-3.260292 -1.5991,1.474532 q -0.13789,0.127149 -0.16031,0.178701 -0.0225,0.05155 -0.005,0.115516 0.0176,0.06381 0.11619,0.170632 l 0.13741,0.149017 -0.42923,0.395807 -1.18742,-1.28772 0.42924,-0.395807 0.12304,0.133432 q 0.10256,0.111237 0.15938,0.134919 0.0569,0.02374 0.12615,0.0051 0.0693,-0.01859 0.16268,-0.104721 l 1.77924,-1.640647 q 0.10232,-0.09433 0.12965,-0.160633 0.0272,-0.06637 0.0134,-0.123657 -0.0137,-0.05726 -0.0958,-0.146246 l -0.1538,-0.1668 z"
     id="path1-0"
     style="fill:#ffffff;stroke:#000000;stroke-width:0.283465" /></svg>
