<svg version="1.1" viewBox="0 0 1500 450" xmlns="http://www.w3.org/2000/svg"><path d="m623 371v-199h-1l-80 199h-31l-80-199h-1v199h-38v-271h48l86 216h1l86-216h48v271h-38zm246 0h-38v-33h-1c-11 24-30 37-60 37-42 0-68-28-68-73v-128h40v120c0 30 14 46 42 46 29 0 46-20 46-51v-115h40v197zm110-201c45 0 75 26 76 62h-37c-2-19-16-31-38-31s-36 11-36 27c0 12 9 21 30 26l32 7c40 9 55 25 55 54 0 36-33 61-79 61-49 0-78-24-81-62h40c4 21 18 31 42 31s39-10 39-26c0-13-7-20-28-25l-32-8c-37-9-55-27-55-55 0-35 30-60 75-60zm108-49c0-13 10-23 23-23s23 10 23 23-10 23-23 23c-6-0-12-2-16-7s-7-10-7-16zm3 52h40v198h-40zm208 68c-4-21-20-38-46-38-31 0-51 26-51 69s20 69 52 69c25 0 41-14 45-37h38c-4 42-37 71-84 71-56 0-92-39-92-103 0-63 36-102 91-102 50 0 80 33 84 72h-38zm-1028-114c-10 12-27 22-43 21-2-17 6-34 15-45 10-13 28-22 43-22 2 17-5 34-15 47zm15 24c9 1 36 4 53 29-1 1-32 19-31 56 0 44 38 59 39 60-0 1-6 21-20 42-12 18-24 36-44 36-19 0-26-12-48-12s-29 11-47 12c-19 1-34-19-46-37-25-37-44-103-18-148 12-22 35-37 60-37 19-0 36 13 48 13 11 0 32-15 55-14z" fill-rule="evenodd" stroke-width="1.2913"/></svg>
