<svg version="1.1" viewBox="0 0 1500 450" xmlns="http://www.w3.org/2000/svg"><path d="m256 79c-82 0-148 66-148 148s66 148 148 148 148-66 148-148-66-148-148-148zm68 213a9 9 0 0 1-13 3c-34-21-78-26-129-14a9 9 0 0 1-11-7 9 9 0 0 1 7-11c56-13 105-7 143 16 4 3 6 8 3 13zm18-40c-3 5-10 7-16 4-40-24-100-31-147-17-6 2-13-2-14-8a12 12 0 0 1 8-14c54-16 120-8 166 20 5 3 7 10 4 16zm2-42c-48-28-126-31-172-17-7 2-15-2-17-9a14 14 0 0 1 9-17c52-16 139-13 194 20a14 14 0 0 1 5 19c-4 7-12 9-19 5zm167 5c-26-6-30-10-30-19 0-8 8-14 20-14s23 4 35 13h1a2 2 0 0 0 1-1l12-18a2 2 0 0 0-0-2c-14-11-30-17-49-17-28 0-47 17-47 40 0 25 17 34 45 41 24 6 29 10 29 19s-8 15-22 15c-15 0-27-5-41-17a2 2 0 0 0-1-0s-1 0-1 1l-14 17c-1 1-1 2 0 2 16 14 35 22 56 22 30 0 49-16 49-41 0-21-13-33-44-40zm111-25c-13 0-23 5-32 15v-12a2 2 0 0 0-2-2h-23c-1 0-2 1-2 2v130c0 1 1 2 2 2h23c1 0 2-1 2-2v-41c9 10 19 15 32 15 24 0 48-18 48-54 0-35-24-54-48-54zm22 54c0 18-11 30-27 30s-27-13-27-30 12-30 27-30c16-0 27 13 27 30zm89-54c-31 0-55 24-55 54s24 53 55 53 55-24 55-54-24-54-55-54zm0 84c-16 0-29-13-29-31s12-30 28-30 29 13 29 31-12 30-29 30zm119-82h-25v-26a2 2 0 0 0-2-2h-23c-1 0-2 1-2 2v26h-11c-1 0-2 1-2 2v20c0 1 1 2 2 2h11v51c0 21 10 31 30 31 8 0 15-2 21-5 1-0 1-1 1-1v-19c0-1-0-1-1-1a2 2 0 0 0-2-0c-4 2-9 3-13 3-7 0-11-3-11-11v-47h25c1 0 2-1 2-2v-20a2 2 0 0 0-2-2zm88 0v-3c0-9 4-13 12-13 5 0 9 1 13 2h1a2 2 0 0 0 1-1v-19a2 2 0 0 0-1-2c-5-1-10-3-19-3-21 0-32 12-32 34v5h-11c-1 0-2 1-2 2v20c0 1 1 2 2 2h11v78c0 1 1 2 2 2h23c1 0 2-1 2-2v-78h21l33 78c-4 8-7 10-12 10-4 0-8-1-13-4a2 2 0 0 0-1-0s-1 0-1 1l-8 17c-0 1-0 2 1 2 8 4 15 6 24 6 17 0 26-8 34-29l40-102a2 2 0 0 0-0-2 2 2 0 0 0-1-1h-24c-1 0-1 0-2 1l-24 70-27-70a2 2 0 0 0-2-1h-39zm-51-0h-23c-1 0-2 1-2 2v100c0 1 1 2 2 2h23c1 0 2-1 2-2v-100a2 2 0 0 0-2-2zm-11-45c-9 0-16 7-16 16s7 16 16 16 16-7 16-16-7-16-16-16zm200 77c-9 0-16-7-16-16s7-16 16-16 16 7 16 16-7 16-16 16zm0-31c-8 0-14 7-14 15s6 14 14 14 14-7 14-15-6-14-14-14zm4 16 5 6h-4l-4-6h-4v6h-3v-17h8c4 0 7 2 7 5s-2 4-4 5zm-3-8h-4v5h4c2 0 3-1 3-3s-1-3-3-3z" fill="#1ed760" stroke-width="1.7643"/></svg>
