<svg version="1.1" viewBox="0 0 1500 450" xmlns="http://www.w3.org/2000/svg"><g transform="matrix(.55259 0 0 .55259 269.9 -96.825)"><g transform="matrix(20.321 0 0 20.321 -291 319)"><path d="m30.1 21.9h2.3v-7.3c0-2-0-4.2-0.2-7.1h0.3l0.4 1.8 2.7 12.6h2.4l2.7-12.6 0.5-1.8h0.2c-0.1 2.6-0.2 4.9-0.2 7.1v7.3h2.3v-16.8h-4l-1.4 6.2c-0.6 2.6-1 5.8-1.3 7.4h-0.2c-0.2-1.7-0.6-4.8-1.2-7.4l-1.5-6.2h-3.9z"/><path d="m48.2 22.1c1.5 0 2.4-0.6 3.1-1.7h0.1l0.1 1.5h2v-12.4h-2.6v9.9c-0.3 0.5-0.9 0.8-1.5 0.8-0.8 0-1-0.6-1-1.6v-9.1h-2.6v9.3c0 2 0.6 3.3 2.5 3.3z"/><path d="m58.8 22.1c2.4 0 3.8-1.1 3.8-3.3 0-2-1-2.8-3.4-4.4-1.1-0.7-1.7-1.2-1.7-2.2 0-0.8 0.5-1.2 1.4-1.2 1 0 1.3 0.6 1.3 2.5l2.2-0.1c0.2-2.9-0.8-4.1-3.5-4.1-2.5 0-3.7 1.1-3.7 3.2 0 2 0.9 2.9 2.7 4.1 1.6 1.1 2.4 1.7 2.4 2.6 0 0.7-0.5 1.3-1.4 1.3-1 0-1.6-0.9-1.5-2.2h-2.2c-0.3 2.6 0.9 3.9 3.5 3.9z"/><path d="m65.4 7.9c0.9 0 1.3-0.3 1.3-1.5s-0.5-1.5-1.3-1.5c-0.9 0-1.3 0.3-1.3 1.5s0.4 1.5 1.3 1.5zm-1.2 13.9h2.5v-12.3h-2.5z"/><path d="m72.3 22.1c1.3 0 2-0.1 2.5-0.7 0.8-0.7 1.2-1.9 1.1-3.8l-2.3-0.1c0 2.1-0.3 2.9-1.3 2.9-1.1 0-1.3-1.2-1.3-3.4v-2.6c0-2.4 0.2-3.5 1.3-3.5 0.9 0 1.2 0.7 1.2 3.1l2.3-0.2c0.2-1.7-0-3.1-0.8-3.8-0.6-0.6-1.5-0.8-2.7-0.8-3 0-4 1.9-4 5.6v1.7c0 3.6 0.7 5.5 3.9 5.5z"/></g><g transform="matrix(3.7795 0 0 3.7795 -291 319)" stroke-width="5.3766"><path d="m70 140c39 0 70-31 70-70s-32-70-70-70c-39 0-70 31-70 70 0 38 31 70 70 70z" fill="#f03"/><path d="m110 70c0 22-18 40-40 40s-40-18-40-40 18-40 40-40 40 18 40 40z" fill="none" stroke="#fff"/><path d="m95 70-40-23v46z" fill="#fff"/></g></g></svg>
