<svg version="1.1" viewBox="0 0 1500 450" xmlns="http://www.w3.org/2000/svg" xmlns:xlink="http://www.w3.org/1999/xlink"><g transform="matrix(1.6491 0 0 1.6491 -121.31 -707.69)"><path d="m599 616c-35 26-86 40-129 40-61 0-116-23-158-60-3-3-0-7 4-5 45 26 101 42 158 42 39 0 81-8 121-25 6-3 11 4 5 8" fill="#f90"/><path d="m613 599c-4-6-30-3-41-1-3 0-4-3-1-5 20-14 53-10 57-5s-1 38-20 53c-3 2-6 1-4-2 4-11 14-34 9-40" fill="#f90"/><g fill="#221f1f"><path d="m573 494v-14c0-2 2-3 3-3h61c2 0 4 1 4 3v12c-0 2-2 5-5 9l-32 45c12-0 24 1 35 7 2 1 3 3 3 5v15c0 2-2 4-5 3-19-10-44-11-65 0-2 1-4-1-4-3v-14c0-2 0-6 2-9l37-53h-32c-2 0-4-1-4-3"/><path d="m350 579h-19c-2-0-3-1-3-3v-96c0-2 2-3 4-3h17c2 0 3 1 3 3v13c5-12 13-18 25-18s19 6 24 18c5-12 15-18 26-18 8 0 16 3 22 10 6 8 5 20 5 30v60c0 2-2 3-4 3h-19c-2-0-3-2-3-3v-50c0-4 0-14-1-18-1-6-6-8-11-8s-9 3-11 8-2 13-2 18v51c0 2-2 3-4 3h-19c-2-0-3-2-3-3v-51c0-11 2-26-11-26s-13 15-13 26v51c0 2-2 3-4 3"/><path d="m694 475c28 0 43 24 43 54 0 29-17 52-43 52-27 0-42-24-42-53 0-30 15-53 42-53m0 20c-14 0-15 19-15 30 0 12-0 37 14 37s15-20 15-32c0-8-0-18-3-25-2-7-6-9-12-9"/><path d="m773 579h-19c-2-0-3-2-3-3v-96c0-2 2-3 4-3h17c2 0 3 1 3 3v15c5-13 13-19 25-19 8 0 17 3 22 11s5 21 5 30v60c-0 2-2 3-4 3h-19c-2-0-3-1-3-3v-52c0-10 1-26-12-26-5 0-9 3-11 8-3 6-3 12-3 18v52c-0 2-2 3-4 3"/><use transform="translate(244.37)" xlink:href="#path30"/><path id="path30" d="m280 534v-4c-13 0-28 3-28 19 0 8 4 14 11 14 5 0 10-3 13-8 4-6 3-13 3-20m19 45c-1 1-3 1-4 0-6-5-7-8-11-12-10 10-17 14-31 14-16 0-28-10-28-29 0-15 8-25 20-30 10-4 24-5 35-6v-2c0-4 0-10-2-14-2-3-7-5-10-5-7 0-13 4-15 11-0 2-2 3-3 3l-18-2c-2-0-3-2-3-4 4-23 24-30 42-30 9 0 21 2 28 9 9 8 8 20 8 32v29c0 9 4 13 7 17 1 2 1 4-0 5-4 3-11 9-14 12" fill="#221f1f"/></g></g></svg>
