<svg xmlns="http://www.w3.org/2000/svg" viewBox="0 0 512 512">
 <!--!Font Awesome Free 6.5.1 by @fontawesome - https://fontawesome.com License - https://fontawesome.com/license/free Copyright 2024 Fonticons, Inc.-->

 <g>
  <title>Layer 1</title>
  <path stroke="null" id="svg_1" d="m0,49.43659c0,-11.87945 9.55715,-21.43659 21.43659,-21.43659l40.64021,0c19.65021,0 37.06745,11.43285 45.19549,28.58213l367.10169,0c23.49094,0 40.64021,22.32979 34.47719,45.01685l-36.62085,136.03306c-7.59213,28.04621 -33.04808,47.6071 -62.07681,47.6071l-257.68574,0l4.82323,25.45596c1.96502,10.09306 10.80762,17.41723 21.07932,17.41723l257.5071,0c11.87945,0 21.43659,9.55715 21.43659,21.43659s-9.55715,21.43659 -21.43659,21.43659l-257.5071,0c-30.90442,0 -57.43221,-21.97251 -63.14864,-52.2517l-46.08868,-242.05488c-0.62523,-3.39413 -3.57277,-5.80574 -7.05621,-5.80574l-40.64021,0c-11.87945,0 -21.43659,-9.55715 -21.43659,-21.43659zm114.32851,393.00424a42.87319,42.87319 0 1 1 85.74638,0a42.87319,42.87319 0 1 1 -85.74638,0zm300.11233,-42.87319a42.87319,42.87319 0 1 1 0,85.74638a42.87319,42.87319 0 1 1 0,-85.74638z"/>
 </g>
</svg>