<svg version="1.1" viewBox="0 0 1500 450" xmlns="http://www.w3.org/2000/svg"><g transform="matrix(1.2737 0 0 1.2737 35.03 168.65)"><path d="m258 99c-5 12-8 17-15 28-10 15-24 33-41 34-15 0-19-10-40-10s-25 10-40 10c-16-1-29-18-39-32-28-42-30-91-14-117 12-18 31-29 49-29s29 10 44 10c14 0 23-10 44-10 16 0 33 9 44 23-39 21-33 77 7 92z" stroke-width="4.1812"/><path d="m191-33c8-10 13-23 11-38-12 1-27 9-35 19-8 9-14 23-12 37 14 0 28-8 36-18z" stroke-width="4.1812"/><g transform="matrix(4.1812 0 0 4.1812 -29646 -30060)"><path d="m7168.5 7197.1c0 2-1.5 3.6-3.9 3.6-2.3 0-3.8-1.6-3.8-3.6-0-2.1 1.5-3.7 3.8-3.7 2.4 0 3.8 1.6 3.9 3.7zm-7.5 30v-23.5h7.3v23.5zm19.6-26.2h-8.7v-6.1h24.9v6.1h-8.8v26.2h-7.3zm39.4 18.7c0 3.1 0.1 5.6 0.2 7.5h-6.3l-0.3-3.3h-0.1c-0.9 1.4-3.1 3.8-7.3 3.8-4.8 0-8.3-3-8.3-10.2v-13.8h7.3v12.6c0 3.4 1.1 5.5 3.6 5.5 2 0 3.2-1.4 3.6-2.5 0.2-0.4 0.2-1 0.2-1.6v-14h7.3v15.9zm5.9-8.5c0-2.9-0.1-5.4-0.2-7.5h6.3l0.3 3.2h0.1c1-1.5 3.4-3.7 7.2-3.7 4.8 0 8.4 3.2 8.4 10.1v13.9h-7.3v-13c0-3-1.1-5.1-3.7-5.1-2 0-3.2 1.4-3.7 2.7-0.2 0.5-0.3 1.2-0.3 1.8v13.5h-7.3v-16zm33.7 6.6c0.2 3 3.2 4.5 6.6 4.5 2.5 0 4.5-0.3 6.5-1l1 4.9c-2.4 1-5.3 1.5-8.5 1.5-8 0-12.5-4.7-12.5-12 0-6 3.7-12.5 11.9-12.5 7.6 0 10.5 5.9 10.5 11.7 0 1.2-0.1 2.4-0.2 2.9zm8.6-5c0-1.8-0.8-4.8-4.1-4.8-3.1 0-4.3 2.8-4.5 4.8zm11.1 8c1.3 0.8 4.1 1.8 6.3 1.8s3.1-0.8 3.1-2-0.7-1.8-3.5-2.7c-4.8-1.6-6.7-4.3-6.7-7 0-4.4 3.7-7.7 9.6-7.7 2.7 0 5.2 0.6 6.6 1.3l-1.3 5c-1.1-0.6-3.1-1.3-5.1-1.3-1.8 0-2.8 0.7-2.8 1.9 0 1.1 0.9 1.7 3.8 2.7 4.5 1.5 6.3 3.8 6.4 7.2 0 4.4-3.5 7.6-10.2 7.6-3.1 0-5.8-0.7-7.6-1.7z"/></g></g></svg>
