<svg version="1.1" viewBox="0 0 1500 450" xmlns="http://www.w3.org/2000/svg"><g transform="matrix(.91943 0 0 .91943 -149.51 77.968)"><path d="m763 289-1-174h-96v-63h292v63h-68l-2 175zm71-26v-174l81-1-1-7h-176v7l82 1v174z" fill="#ed008c" stroke-width=".2995"/><path d="m276 282v-231h92l-1 55 54-55h108l-98 107 39 43v82h-45l-57-71v71zm53-28 1-48 43-44 71 84 7-7-71-84 74-76h-12l-113 115-1-116h-10l2 174z" fill="#c0b400" stroke-width=".29989"/><path d="m389 351 166-365h109l168 365h-140l-15-32-136-1-16 33zm94-33 18-39 221 1 15 38h16l-130-286h-23l-134 287zm22-50 105-226 104 225zm136-30-30-63-30 63z" fill="#00adef" stroke-width=".47462"/><g fill="currentColor" stroke-width=".16705"><path d="m1119 225q0 34-17 52t-50 18q-32 0-54-13v-45q27 18 50 18 13 0 20-7t7-20q0-12-8-22t-26-22q-16-11-24-21t-13-22q-4-12-4-29 0-31 17-50 17-18 47-18 28 0 54 16l-15 36q-8-5-17-8-9-4-19-4-11 0-17 7t-6 20q0 12 7 22 7 9 25 21 24 16 33 33t9 38z"/><path d="m1235 295v-111q0-41-21-41-15 0-22 16-6 16-6 46v89h-44v-258h44v58q0 11-2 40h2q13-27 41-27 26 0 39 17t13 51v121z"/><path d="m1445 202q0 46-19 71t-53 25q-21 0-38-12-16-12-25-34t-9-51q0-45 19-71 19-25 53-25 33 0 52 26t19 70zm-99 0q0 29 6 44t20 15q27 0 27-59 0-29-6-44-6-14-20-14t-20 14-6 44z"/><path d="m1544 297c-8 0-15-2-21-5s-12-11-14-8c-3 3-2 13-2 16v76h-45v-268h41l1 24h2c9-19 23-28 40-28s30 8 40 25c9 17 14 40 14 71 0 30-5 54-15 71s-24 26-41 26zm-13-155c-9 0-15 4-19 12s-6 21-6 40v6c0 21 2 36 6 45s10 14 19 14c15 0 23-20 23-59 0-19-2-34-6-43s-10-14-18-14z"/></g></g></svg>
