<svg version="1.1" viewBox="0 0 1500 450" xmlns="http://www.w3.org/2000/svg"><g transform="matrix(.7094 0 0 .7094 508.95 -417.01)"><path d="m-292 1119-126-2c-41-1-82 1-121-8-61-12-65-73-70-124-6-72-4-145 8-216 7-40 33-64 73-66 136-9 272-8 408-4 14 0 29 3 43 5 70 12 71 81 76 139 4 59 3 118-6 176-7 48-20 89-76 92-70 5-138 9-208 8h-1zm-74-122c53-30 104-60 156-90-53-30-104-60-156-90z" fill="#f00"/><g transform="translate(-611.98 695.98)" fill="#282828"><path d="m1622 368c-2 10-4 18-7 26h-49v-379h57v140c3-4 4-5 6-7 10-14 22-22 39-26 26-5 48 6 56 32 5 16 8 32 9 49 1 42 0 84-1 126-1 13-4 26-9 38-16 40-69 46-95 11-2-2-3-4-6-8zm3-104v69c0 11 6 18 17 21s20-2 25-12c2-4 4-9 4-13 1-42 2-85 2-127 0-8-2-16-4-24-4-14-17-18-29-10-9 6-15 15-15 27zm-156-137h60v267h-47c-2-10-3-20-5-33-3 5-5 8-7 11-16 22-38 30-64 26-22-4-36-21-39-49-1-8-1-17-1-25v-188-9h61v11 181c0 9 1 18 2 26 2 9 8 12 17 11 14-1 24-11 24-25v-192-12zm-414-0h60v11 180c0 9 1 18 3 26 2 10 8 13 18 12 14-2 22-11 22-25v-203h60v267h-47c-2-10-3-20-6-33-3 4-5 7-6 10-16 23-38 31-64 27-21-3-34-19-38-45-1-8-2-16-2-24v-195zm-31 143c-0 9-1 18-1 27-2 27-3 65-25 85-14 12-32 17-50 18-8 0-16 0-24-1-38-6-56-23-62-65-7-49-8-98 1-147 9-50 40-68 88-65 45 3 65 33 70 75 3 24 4 48 4 73zm-61-9v-51c-0-10-2-20-4-30-2-11-10-17-19-16-9 0-15 6-18 16-1 4-2 8-2 12v80c-0 25-3 51 4 75 2 7 9 11 17 11s13-4 16-11c2-5 4-11 4-17 1-23 2-46 2-69zm-191-51c5-26 10-51 16-77 7-32 15-65 21-97 2-8 5-10 12-10 16 1 32 0 50 0-6 21-11 40-16 60-17 61-34 121-51 182-1 5-2 10-2 15v100 11h-59c-0-3-1-6-1-9 0-19-2-38 0-56 4-45-10-86-21-127-15-55-31-110-46-165-1-3-1-5-2-9h61c13 61 25 121 38 183zm1149 70h-101c1 20 2 40 4 59 2 13 9 19 20 19 12 0 19-6 22-19 1-4 2-9 2-13s1-8 1-14c17 1 34 2 50 3 10 28-8 65-37 76-23 9-46 9-70 2-17-5-30-16-36-33-5-16-10-32-12-49-3-41-4-82 2-123 1-7 3-13 5-20 8-27 27-44 55-47 15-2 31-1 46 2 25 4 38 22 43 45 3 11 4 22 5 33v78zm-58-35v-58c0-4-2-9-3-14-3-8-10-11-19-11-8 0-14 4-16 12-6 23-4 47-4 70h43z"/><path d="m1265 76h-60v-48h178v48h-59v318h-59z"/></g></g></svg>
