<?xml version="1.0" encoding="UTF-8" standalone="no"?>
<!-- Created with Inkscape (http://www.inkscape.org/) -->

<svg
   version="1.1"
   id="svg1"
   width="1365.3333"
   height="1365.3333"
   viewBox="0 0 1365.3333 1365.3333"
   xmlns="http://www.w3.org/2000/svg"
   xmlns:svg="http://www.w3.org/2000/svg">
  <defs
     id="defs1" />
  <g
     id="g1">
    <path
       style="fill:#000000"
       d="m 345.14963,1157.3177 v -16.6667 h -29.33334 -29.33333 v -4.6667 -4.6666 h 29.33333 29.33334 v -16.6667 -16.6667 h -12.66667 -12.66667 v -5.3333 -5.3333 h 12.66667 12.66667 v -17.3334 -17.3333 H 272.48296 199.8163 v -4 -4 h 192.66666 c 105.96666,0 192.66665,0.32 192.66665,0.711 0,0.391 -1.44145,3.541 -3.20321,7 -5.6318,11.0571 -32.9437,28.7277 -50.08332,32.4035 -3.6924,0.7919 -6.71346,1.7267 -6.71346,2.0773 0,0.3506 16.64999,18.769 36.99999,40.9299 20.35,22.1608 38.14299,41.6242 39.53998,43.252 l 2.53999,2.9596 h -33.3941 -33.3941 l -45.81255,-42.6397 -45.81254,-42.6397 -18.33334,-0.027 -18.33333,-0.027 v 42.6667 42.6666 h -32 -31.99999 z m 289.33331,-48 v -64.6667 h 29.33333 29.33334 v 64.6667 64.6666 h -29.33334 -29.33333 z m 144.25989,0.3333 -61.68057,-64.3333 38.9966,-0.354 38.99661,-0.3539 11.71373,11.6595 11.71373,11.6594 v -11.6388 -11.6389 h 28.66667 28.66666 v 64.6667 64.6666 H 858.11983 840.4234 Z m 149.07343,-0.3333 v -64.6667 h 32.66666 32.66667 v 36.6667 36.6666 l 37.00001,0.01 37.0001,0.01 12.7324,-8.6032 c 16.8285,-11.3708 23.7066,-17.6222 28.8939,-26.2609 4.5654,-7.603 9.6526,-25.1875 9.6865,-33.4828 l 0.021,-5 h 32.8658 32.8658 l -0.8111,21 c -0.9591,24.8347 -3.5254,34.4331 -14.4345,53.9874 -14.8951,26.6991 -27.3767,38.7337 -51.3205,49.4822 l -10.8345,4.8637 h -89.4993 -89.49894 z m -582.66663,-93.3334 v -3.3333 H 310.48296 275.8163 v -4 -4 h 34.66666 34.66667 v -16.66669 -16.6666 H 272.48296 199.8163 v -4 -4 h 72.66666 72.66667 v -17.99999 -18 H 305.8163 266.48296 v -7.3334 -7.3333 h 120.48468 c 75.42221,0 123.1708,0.5033 127.66666,1.3456 15.87216,2.9738 35.37074,17.1662 49.53806,36.0573 16.35912,21.81369 23.02315,37.47199 24.51293,57.59708 l 0.86364,11.6667 H 554.7848 520.02067 l 1.89598,-3.8006 c 5.795,-11.6164 2.24598,-28.81599 -8.15401,-39.51679 l -5.84688,-6.016 h -50.7164 -50.7164 v 24.6667 24.66669 h -30.66667 -30.66666 z m 289.33331,-49.99999 v -53.33329 h 15.00944 15.00943 l 34.66196,35 c 19.06408,19.24999 42.7515,43.24999 52.63871,53.33328 l 17.97674,18.3334 h -67.64814 -67.64814 z m 183.99999,0 v -53.33329 h 28.66667 28.66666 v 53.33329 53.33339 H 847.1496 818.48293 Z m 109.33333,-0.03 v -53.36359 l 80.58934,0.3636 80.5893,0.3636 15.7166,8 c 12.7595,6.4948 18.193,10.2579 28.8776,20 19.9967,18.2329 32.0491,36.40199 43.0604,64.91378 2.4751,6.4088 4.5002,11.975 4.5002,12.3693 0,0.3943 -14.322,0.7169 -31.8266,0.7169 h -31.8266 l -0.6627,-5.8792 c -0.8795,-7.8029 -4.9008,-15.78739 -12.6513,-25.11949 -12.6809,-15.2687 -14.2745,-15.6318 -68.6995,-15.6521 l -42.33341,-0.016 v 23.3333 23.33339 h -32.66667 -32.66666 z m -64.19725,-86.30089 -26.19724,-0.3909 -10.39915,-12.639 -10.39914,-12.6389 h -65.6009 -65.6009 l -14.3007,-15.3333 c -7.86539,-8.4334 -15.29486,-15.3334 -16.50993,-15.3334 -1.21506,0 -6.09096,-4.6 -10.83533,-10.2224 -13.76765,-16.3153 -13.4666,-13.8412 -2.93584,-24.1271 5.05867,-4.9411 10.32718,-10.9338 11.7078,-13.3171 1.38062,-2.3834 3.25761,-4.3334 4.17108,-4.3334 2.81615,0 5.76418,-13.0937 5.76418,-25.60178 0,-9.49366 -0.64798,-13.37917 -3.33333,-19.98787 -4.8858,-12.02404 -4.8373,-12.13581 6.85811,-15.80367 l 10.19145,-3.1962 14.80855,15.66476 14.80855,15.66476 21.66667,-0.0366 21.66666,-0.0366 v 12.6667 12.6666 h -19.43927 -19.43927 l 0.72701,3.6667 c 0.39985,2.0167 1.09991,6.0667 1.55569,9 1.72605,11.1085 -5.92978,10 69.0612,10 h 66.95232 l 32.03006,33 c 17.61653,18.15 38.22361,39.45 45.79352,47.3333 l 13.76345,14.3334 -25.16902,-0.3035 c -13.84297,-0.1669 -36.95779,-0.4794 -51.36628,-0.6944 z m 53.45979,-58.9999 -55.26254,-57.331 H 816.1496 770.48293 v -12.6667 -12.66667 l 57,0.0178 57,0.0178 59.99999,57.97697 60.00008,57.977 h 63 l 63,0.01 v 12 12 h -79.0708 -79.07085 z m -507.64223,32.2796 -24.37972,-23.6152 0.0464,-68.7845 0.0464,-68.78453 98.15409,-97.16409 c 53.98475,-53.44025 97.48474,-97.3872 96.66666,-97.65989 -1.04403,-0.34801 -1.49388,-11.09475 -1.50908,-36.05137 l -0.0217,-35.55555 -9.3246,-6.54739 c -8.50274,-5.97031 -9.14719,-6.74344 -7.31168,-8.77166 1.10711,-1.22334 2.01293,-2.66482 2.01293,-3.20328 0,-0.53847 1.8773,-4.87149 4.17178,-9.62895 4.02328,-8.34201 4.1495,-9.13403 3.54568,-22.24932 -0.4989,-10.83623 -1.3637,-15.36031 -4.25627,-22.26606 -6.51528,-15.55466 -6.67627,-16.16199 -4.64154,-17.51016 1.38601,-0.91834 10.23748,7.35404 35.46327,33.14318 l 33.61625,34.36698 0.0504,60.00384 0.0504,60.00384 -86.66667,86.65897 -86.66666,86.65897 0.01,56.67047 0.01,56.6705 27.47112,29.3334 c 15.10912,16.1333 29.32248,31.2833 31.58526,33.6666 l 4.11413,4.3334 -43.92822,-0.052 -43.92822,-0.052 z m 110.65098,-13.3146 -36.3954,-35.6339 0.0621,-51.3496 0.0621,-51.3496 86.78054,-84.65038 86.78054,-84.65039 -0.75243,-11.33333 c -0.41383,-6.23333 -1.13346,-36.855 -1.59917,-68.04815 l -0.84675,-56.71482 -37.84279,-39.28518 c -20.81354,-21.60684 -37.81724,-39.58517 -37.786,-39.95184 0.0312,-0.36667 6.16151,-5.01667 13.62283,-10.33333 l 13.56605,-9.66667 31.37192,0.003 31.37192,0.003 22.66667,18.15091 c 12.46666,9.98301 23.56666,18.5318 24.66666,18.99731 1.1,0.46551 -12.26013,1.14638 -29.68918,1.51305 l -31.68918,0.66666 45.27027,39.30074 45.27027,39.30074 0.83903,9.36592 c 0.46146,5.15126 0.64997,15.85628 0.41891,23.78894 l -0.42012,14.423 -17.23793,-19.42556 C 719.09754,432.05499 709.94754,422.4008 708.24507,421.2853 l -3.09539,-2.02818 v 61.06062 61.06062 l -58.77408,62.63677 c -32.32574,34.45023 -60.41987,64.31938 -62.43141,66.37589 -2.49627,2.55208 -6.6237,4.50212 -13.00133,6.14261 -14.44918,3.71667 -27.3653,11.1199 -33.67954,19.30432 -8.94413,11.59325 -12.07896,20.12739 -14.08137,38.33453 -1.86813,16.98624 -1.21312,22.95224 3.85051,35.07114 5.48479,13.127 22.70595,30.3246 37.45056,37.3994 8.12948,3.9007 10.88113,4.5255 21.33333,4.8437 6.6,0.201 15,-0.093 18.66666,-0.653 l 6.66667,-1.0183 23.33333,24.9549 c 12.83334,13.7252 26.53368,28.4634 30.44521,32.7516 l 7.11187,7.7966 -57.77854,-0.033 -57.77853,-0.033 z m -232.27125,5.0328 v -12 h 24.66666 24.66667 v 12 12 H 312.48296 287.8163 Z m -73.33333,-53.3334 v -12 h 31.33333 31.33333 v 12 12 H 245.8163 214.48297 Z m 85.33333,0 v -12 h 17.33333 17.33333 v 12 12 H 317.14963 299.8163 Z m 278.66665,0 c 0,-0.7333 -0.85026,-1.3333 -1.88946,-1.3333 -7.63665,0 -25.26436,-13.3415 -29.47827,-22.3106 -1.2979,-2.7625 -3.02112,-5.4516 -3.82938,-5.9757 -1.89644,-1.2298 -1.9301,-32.82183 -0.0364,-34.12281 0.73991,-0.50831 2.18351,-3.52678 3.20801,-6.7077 2.40681,-7.47281 12.41905,-18.01449 19.35878,-20.38245 2.93333,-1.00091 5.64584,-2.23597 6.02778,-2.74457 0.38195,-0.50861 5.86484,-1.67231 12.18421,-2.58599 9.1971,-1.32977 12.9828,-1.32712 18.97222,0.0132 4.11535,0.92098 7.48245,2.16643 7.48245,2.76767 0,0.60124 1.44458,1.45573 3.21016,1.89887 1.76559,0.44313 6.82287,4.74833 11.23841,9.5671 7.80404,8.51674 12.2181,17.21441 12.2181,24.07511 0,1.65942 0.6,3.38795 1.33333,3.84117 0.73334,0.45323 1.33334,5.55323 1.33334,11.3333 0,5.7801 -0.6,10.8801 -1.33334,11.3334 -0.73333,0.4532 -1.33333,1.7479 -1.33333,2.8771 0,9.3501 -16.51802,25.2186 -27.83023,26.7359 -3.0267,0.4059 -5.5031,1.2591 -5.5031,1.8959 0,0.6367 -5.7,1.1577 -12.66667,1.1577 -7.55555,0 -12.66666,-0.538 -12.66666,-1.3333 z m 21.33333,-26.4966 c 0.36666,-0.4602 2.42002,-1.7367 4.56301,-2.8367 5.83088,-2.993 10.49681,-12.5997 9.56366,-19.69057 -0.85566,-6.50196 -4.79441,-12.51223 -9.93262,-15.15652 -1.94006,-0.99842 -3.9555,-2.41626 -4.47875,-3.15076 -0.52325,-0.73451 -4.46996,-1.33546 -8.77046,-1.33546 -6.55224,0 -8.63076,0.61909 -12.82882,3.8211 -7.25359,5.53259 -10.10515,10.92567 -10.11104,19.12275 -0.004,6.23436 0.51883,7.49446 5.1219,12.33336 2.81979,2.9642 6.11979,5.3894 7.33334,5.3894 1.21354,0 2.20645,0.5583 2.20645,1.2406 0,0.6824 1.35,1.5131 3,1.8462 3.52645,0.7117 13.37113,-0.3758 14.33333,-1.5834 z m 40.45465,-70.39993 c -10.97518,-10.65847 -22.38788,-17.77008 -28.51739,-17.77008 -1.43216,0 -2.60267,-0.75 -2.60113,-1.66667 0.002,-0.91666 40.24275,-44.26666 89.42493,-96.33333 l 89.42213,-94.66666 -0.91682,-38.78587 -0.91682,-38.78587 98.44406,-50.8175 c 54.14423,-27.94963 98.62361,-50.63794 98.84307,-50.41848 0.21946,0.21946 -5.65596,12.97074 -13.05649,28.33617 l -13.45551,27.93716 -50.64205,25.2672 c -40.24166,20.07806 -51.33717,26.17417 -54.0268,29.68348 l -3.38476,4.41628 0.97417,38.48838 0.97417,38.48838 -100.99034,102.09533 c -55.54468,56.15243 -101.16945,102.09533 -101.38838,102.09533 -0.21893,0 -3.90265,-3.40346 -8.18604,-7.56325 z m 378.21207,-4.43675 v -12 h 33.3333 33.3334 v 12 12 h -33.3334 -33.3333 z M 703.64874,679.65105 c 8.87451,-9.35 23.49268,-24.68142 32.48483,-34.06982 l 16.34937,-17.06981 35.99999,32.1604 c 19.8,17.68822 36.87857,33.01964 37.95238,34.06982 1.69484,1.65753 -7.33918,1.90941 -68.48483,1.90941 h -70.43721 z m 109.14433,-27.97303 -42.15371,-36.84372 5.23374,-6.09162 c 2.87856,-3.3504 8.09336,-9.2528 11.58845,-13.11646 l 6.35472,-7.02484 62.83871,27.86832 c 34.5613,15.32758 63.84386,28.43083 65.07236,29.11834 1.77565,0.9937 -4.68442,5.44051 -31.50538,21.68688 -18.55647,11.24028 -34.08466,20.61911 -34.5071,20.84185 -0.42244,0.22274 -19.73725,-16.1747 -42.92179,-36.43875 z m 95.68986,-36.24335 c -18.33334,-7.86506 -47.98921,-20.52232 -65.90194,-28.12724 l -32.5686,-13.82715 6.53209,-5.74794 6.5321,-5.74795 h 101.30317 c 61.62189,0 100.80705,0.48003 100.03655,1.22548 -3.7608,3.63854 -81.3276,66.75479 -81.90923,66.64971 -0.37995,-0.0686 -15.69081,-6.55985 -34.02414,-14.42491 z m -610.3333,-36.37844 -25,-32.27428 v -20.77614 -20.77615 l 18.45548,-13.75454 18.45548,-13.75454 8.28666,-31.53476 c 6.51843,-24.80577 10.01506,-35.3561 16.38666,-49.44314 8.79154,-19.43734 26.79666,-48.24048 43.81495,-70.09161 10.11611,-12.98889 33.26743,-37.15606 33.26743,-34.72718 0,0.66766 -3.63832,12.8661 -8.08515,27.10763 -4.44683,14.24154 -7.84858,26.13027 -7.55944,26.4194 4.298,4.29801 51.53374,-33.36011 76.97792,-61.3697 16.57459,-18.24573 58.65721,-56.43534 74.41055,-67.52691 10.7072,-7.5387 38.97854,-24.29191 39.72812,-23.54233 0.25924,0.25924 -11.27557,14.72442 -25.63293,32.14484 -14.35735,17.42042 -25.89461,31.83141 -25.63835,32.02441 0.25627,0.193 32.20371,-13.65955 70.99433,-30.78345 38.79062,-17.12389 70.72852,-30.93422 70.97313,-30.68962 0.2446,0.2446 -32.83932,31.90682 -73.51984,70.36049 -40.68051,38.45366 -73.96842,70.28415 -73.97313,70.73442 -0.005,0.45026 2.37311,2.46915 5.28403,4.48642 9.73307,6.74503 17.29194,22.77062 17.35326,36.79072 0.0277,6.32946 -3.54162,16.65552 -8.03226,23.23752 -5.67787,8.32216 -18.10119,14.0666 -32.17661,14.87821 -7.55425,0.43559 -14.76463,1.91692 -22.55641,4.63407 l -11.45277,3.99381 -3.73565,34.91362 c -2.0546,19.20249 -4.40085,35.59926 -5.21389,36.43726 -0.81304,0.83801 -20.07825,5.85013 -42.81158,11.13806 l -41.33333,9.6144 -23.8229,13.86195 c -21.39374,12.44848 -24.48676,13.86195 -30.33333,13.86195 h -6.51043 l -0.13186,26.33333 c -0.0725,14.48333 -0.52253,29.48621 -1,33.33972 l -0.86814,7.00639 z m 84.99999,-126.05797 c 8.24886,-2.93488 14.93976,-6.24872 17.54595,-8.69009 5.60163,-5.24738 10.08631,-19.01679 9.52914,-29.25758 l -0.40842,-7.50675 -15.16068,9.11141 c -15.82203,9.50889 -20.09982,13.56851 -25.97667,24.65187 -4.30338,8.11589 -5.04615,18.90076 -1.19598,17.36547 1.28333,-0.51174 8.33333,-3.06519 15.66666,-5.67433 z m 140.61052,-64.14075 c 5.14466,-4.89399 5.38948,-5.49535 5.38948,-13.23839 0,-7.3784 -0.40588,-8.54187 -4.49077,-12.87312 -4.24378,-4.49971 -4.95878,-4.76048 -13,-4.74118 -9.664,0.0232 -10.58853,0.42841 -15.18186,6.65433 -3.76198,5.09907 -4.55066,15.46505 -1.6225,21.32525 2.27674,4.55651 9.68912,7.99543 17.23898,7.99793 5.45933,0.002 6.9794,-0.66592 11.66667,-5.12482 z m 326.5394,145.46021 c 2.22237,-2.75 7.9624,-9.49585 12.75561,-14.99078 6.91609,-7.92859 9.03373,-11.41532 10.25942,-16.89227 0.84947,-3.79582 1.94877,-7.55563 2.44289,-8.35514 0.76627,-1.23984 230.51444,-28.75073 231.53974,-27.72541 0.1881,0.18813 -13.2587,16.6819 -29.8818,36.65283 l -30.2239,36.31077 H 946.72514 846.25885 Z M 523.81628,485.10117 v -26.47844 l -10.73896,-6.43562 c -11.06484,-6.63091 -12.59098,-9.23613 -5.82488,-9.94346 8.54876,-0.8937 24.79547,-6.07058 30.59599,-9.74916 l 6.13908,-3.89329 5.08912,3.65813 c 4.65919,3.34909 5.15884,4.32515 5.91438,11.55385 0.4539,4.34265 0.82527,16.38751 0.82527,26.76635 v 18.87062 l -12.26885,8.60045 c -6.74787,4.73025 -13.94787,9.70938 -16,11.06473 l -3.73115,2.46427 z m 353.33331,-38.28919 v -20.50575 l 179.00001,-98.36665 c 98.4501,-54.10166 179.5099,-98.64648 180.1331,-98.98848 0.6232,-0.34201 0.3957,0.80058 -0.5054,2.53907 -4.7589,9.18128 -113.8509,208.64833 -114.5792,209.50008 -0.5873,0.6868 -237.78504,26.30929 -243.71517,26.32651 -0.18334,5.3e-4 -0.33334,-9.22662 -0.33334,-20.50478 z"
       id="path1" />
  </g>
</svg>
