{
    "asset" : {
        "generator" : "Khronos glTF Blender I/O v1.8.19",
        "version" : "2.0"
    },
    "scene" : 0,
    "scenes" : [
        {
            "name" : "Scene",
            "nodes" : [
                0,
                1,
                2,
                3,
                4,
                5,
                6,
                7,
                8,
                9,
                10
            ]
        }
    ],
    "nodes" : [
        {
            "mesh" : 0,
            "name" : "Exterior_Walls",
            "rotation" : [
                0.7071068286895752,
                0,
                0,
                0.7071067094802856
            ]
        },
        {
            "mesh" : 1,
            "name" : "Glass_Wnidow_1_Glass_WIndow.001",
            "rotation" : [
                0.7071068286895752,
                0,
                0,
                0.7071067094802856
            ]
        },
        {
            "mesh" : 2,
            "name" : "Glass_Wnidow_2_Glass_WIndow_001.001",
            "rotation" : [
                0.7071068286895752,
                0,
                0,
                0.7071067094802856
            ]
        },
        {
            "mesh" : 3,
            "name" : "Stand_Cube.003",
            "rotation" : [
                0.7071068286895752,
                0,
                0,
                0.7071067094802856
            ]
        },
        {
            "mesh" : 4,
            "name" : "Left_Walls_Cube.004",
            "rotation" : [
                0.7071068286895752,
                0,
                0,
                0.7071067094802856
            ]
        },
        {
            "mesh" : 5,
            "name" : "Right_Wall_Cube.005",
            "rotation" : [
                0.7071068286895752,
                0,
                0,
                0.7071067094802856
            ]
        },
        {
            "mesh" : 6,
            "name" : "Right_Auditorium_Cube.006",
            "rotation" : [
                0.7071068286895752,
                0,
                0,
                0.7071067094802856
            ]
        },
        {
            "mesh" : 7,
            "name" : "Floor_3_Cube.011",
            "rotation" : [
                0.7071068286895752,
                0,
                0,
                0.7071067094802856
            ]
        },
        {
            "mesh" : 8,
            "name" : "Roof_Cube.012",
            "rotation" : [
                0.7071068286895752,
                0,
                0,
                0.7071067094802856
            ]
        },
        {
            "mesh" : 9,
            "name" : "Floor_2_Cube.007",
            "rotation" : [
                0.7071068286895752,
                0,
                0,
                0.7071067094802856
            ]
        },
        {
            "mesh" : 10,
            "name" : "Base_Plane",
            "rotation" : [
                0.7071068286895752,
                0,
                0,
                0.7071067094802856
            ]
        }
    ],
    "materials" : [
        {
            "doubleSided" : true,
            "name" : "None",
            "pbrMetallicRoughness" : {
                "baseColorFactor" : [
                    0.800000011920929,
                    0.800000011920929,
                    0.800000011920929,
                    1
                ],
                "metallicFactor" : 0,
                "roughnessFactor" : 0.2928932309150696
            }
        },
        {
            "doubleSided" : true,
            "name" : "Floor_Main.002",
            "pbrMetallicRoughness" : {
                "metallicFactor" : 0,
                "roughnessFactor" : 0.5527864098548889
            }
        }
    ],
    "meshes" : [
        {
            "name" : "Exterior_Walls",
            "primitives" : [
                {
                    "attributes" : {
                        "POSITION" : 0,
                        "NORMAL" : 1,
                        "TEXCOORD_0" : 2
                    },
                    "indices" : 3,
                    "material" : 0
                }
            ]
        },
        {
            "name" : "Glass_Wnidow_1_Glass_WIndow.001",
            "primitives" : [
                {
                    "attributes" : {
                        "POSITION" : 4,
                        "NORMAL" : 5,
                        "TEXCOORD_0" : 6
                    },
                    "indices" : 7,
                    "material" : 0
                }
            ]
        },
        {
            "name" : "Glass_Wnidow_2_Glass_WIndow_001.001",
            "primitives" : [
                {
                    "attributes" : {
                        "POSITION" : 8,
                        "NORMAL" : 9,
                        "TEXCOORD_0" : 10
                    },
                    "indices" : 7,
                    "material" : 0
                }
            ]
        },
        {
            "name" : "Stand_Cube.003",
            "primitives" : [
                {
                    "attributes" : {
                        "POSITION" : 11,
                        "NORMAL" : 12,
                        "TEXCOORD_0" : 13
                    },
                    "indices" : 14,
                    "material" : 0
                }
            ]
        },
        {
            "name" : "Left_Walls_Cube.004",
            "primitives" : [
                {
                    "attributes" : {
                        "POSITION" : 15,
                        "NORMAL" : 16,
                        "TEXCOORD_0" : 17
                    },
                    "indices" : 18,
                    "material" : 0
                }
            ]
        },
        {
            "name" : "Right_Wall_Cube.005",
            "primitives" : [
                {
                    "attributes" : {
                        "POSITION" : 19,
                        "NORMAL" : 20,
                        "TEXCOORD_0" : 21
                    },
                    "indices" : 22,
                    "material" : 0
                }
            ]
        },
        {
            "name" : "Right_Auditorium_Cube.006",
            "primitives" : [
                {
                    "attributes" : {
                        "POSITION" : 23,
                        "NORMAL" : 24,
                        "TEXCOORD_0" : 25
                    },
                    "indices" : 22,
                    "material" : 0
                }
            ]
        },
        {
            "name" : "Floor_3_Cube.011",
            "primitives" : [
                {
                    "attributes" : {
                        "POSITION" : 26,
                        "NORMAL" : 27,
                        "TEXCOORD_0" : 28
                    },
                    "indices" : 29,
                    "material" : 0
                }
            ]
        },
        {
            "name" : "Roof_Cube.012",
            "primitives" : [
                {
                    "attributes" : {
                        "POSITION" : 30,
                        "NORMAL" : 31,
                        "TEXCOORD_0" : 32
                    },
                    "indices" : 22,
                    "material" : 0
                }
            ]
        },
        {
            "name" : "Floor_2_Cube.007",
            "primitives" : [
                {
                    "attributes" : {
                        "POSITION" : 33,
                        "NORMAL" : 34,
                        "TEXCOORD_0" : 35
                    },
                    "indices" : 36,
                    "material" : 0
                }
            ]
        },
        {
            "name" : "Base_Plane",
            "primitives" : [
                {
                    "attributes" : {
                        "POSITION" : 37,
                        "NORMAL" : 38,
                        "TEXCOORD_0" : 39
                    },
                    "indices" : 40,
                    "material" : 1
                }
            ]
        }
    ],
    "accessors" : [
        {
            "bufferView" : 0,
            "componentType" : 5126,
            "count" : 104,
            "max" : [
                26.90509033203125,
                39.97507095336914,
                0.13302700221538544
            ],
            "min" : [
                -33.540611267089844,
                -0.477744996547699,
                -11.866972923278809
            ],
            "type" : "VEC3"
        },
        {
            "bufferView" : 1,
            "componentType" : 5126,
            "count" : 104,
            "type" : "VEC3"
        },
        {
            "bufferView" : 2,
            "componentType" : 5126,
            "count" : 104,
            "type" : "VEC2"
        },
        {
            "bufferView" : 3,
            "componentType" : 5123,
            "count" : 204,
            "type" : "SCALAR"
        },
        {
            "bufferView" : 4,
            "componentType" : 5126,
            "count" : 24,
            "max" : [
                -11.388509750366211,
                39.72213363647461,
                0
            ],
            "min" : [
                -11.408510208129883,
                36.02964401245117,
                -3.4985671043395996
            ],
            "type" : "VEC3"
        },
        {
            "bufferView" : 5,
            "componentType" : 5126,
            "count" : 24,
            "type" : "VEC3"
        },
        {
            "bufferView" : 6,
            "componentType" : 5126,
            "count" : 24,
            "type" : "VEC2"
        },
        {
            "bufferView" : 7,
            "componentType" : 5123,
            "count" : 36,
            "type" : "SCALAR"
        },
        {
            "bufferView" : 8,
            "componentType" : 5126,
            "count" : 24,
            "max" : [
                -11.388509750366211,
                31.029600143432617,
                0
            ],
            "min" : [
                -11.408510208129883,
                27.33711051940918,
                -3.5061628818511963
            ],
            "type" : "VEC3"
        },
        {
            "bufferView" : 9,
            "componentType" : 5126,
            "count" : 24,
            "type" : "VEC3"
        },
        {
            "bufferView" : 10,
            "componentType" : 5126,
            "count" : 24,
            "type" : "VEC2"
        },
        {
            "bufferView" : 11,
            "componentType" : 5126,
            "count" : 289,
            "max" : [
                5.4493727684021,
                39.72507095336914,
                -0.0006689999718219042
            ],
            "min" : [
                -4.1537017822265625,
                23.534961700439453,
                -3.506450891494751
            ],
            "type" : "VEC3"
        },
        {
            "bufferView" : 12,
            "componentType" : 5126,
            "count" : 289,
            "type" : "VEC3"
        },
        {
            "bufferView" : 13,
            "componentType" : 5126,
            "count" : 289,
            "type" : "VEC2"
        },
        {
            "bufferView" : 14,
            "componentType" : 5123,
            "count" : 480,
            "type" : "SCALAR"
        },
        {
            "bufferView" : 15,
            "componentType" : 5126,
            "count" : 136,
            "max" : [
                26.707378387451172,
                24.51807975769043,
                -0.001934999949298799
            ],
            "min" : [
                11.972057342529297,
                -0.33879101276397705,
                -11.932234764099121
            ],
            "type" : "VEC3"
        },
        {
            "bufferView" : 16,
            "componentType" : 5126,
            "count" : 136,
            "type" : "VEC3"
        },
        {
            "bufferView" : 17,
            "componentType" : 5126,
            "count" : 136,
            "type" : "VEC2"
        },
        {
            "bufferView" : 18,
            "componentType" : 5123,
            "count" : 204,
            "type" : "SCALAR"
        },
        {
            "bufferView" : 19,
            "componentType" : 5126,
            "count" : 24,
            "max" : [
                -11.02389144897461,
                24.518447875976562,
                -0.001934999949298799
            ],
            "min" : [
                -11.3014497756958,
                -0.2719990015029907,
                -11.866971969604492
            ],
            "type" : "VEC3"
        },
        {
            "bufferView" : 20,
            "componentType" : 5126,
            "count" : 24,
            "type" : "VEC3"
        },
        {
            "bufferView" : 21,
            "componentType" : 5126,
            "count" : 24,
            "type" : "VEC2"
        },
        {
            "bufferView" : 22,
            "componentType" : 5123,
            "count" : 36,
            "type" : "SCALAR"
        },
        {
            "bufferView" : 23,
            "componentType" : 5126,
            "count" : 24,
            "max" : [
                -18.52020263671875,
                39.72507095336914,
                -0.001934999949298799
            ],
            "min" : [
                -18.926633834838867,
                -0.2719990015029907,
                -11.866971969604492
            ],
            "type" : "VEC3"
        },
        {
            "bufferView" : 24,
            "componentType" : 5126,
            "count" : 24,
            "type" : "VEC3"
        },
        {
            "bufferView" : 25,
            "componentType" : 5126,
            "count" : 24,
            "type" : "VEC2"
        },
        {
            "bufferView" : 26,
            "componentType" : 5126,
            "count" : 48,
            "max" : [
                26.707378387451172,
                39.725074768066406,
                -7.25
            ],
            "min" : [
                -18.797760009765625,
                -0.2719990015029907,
                -7.75
            ],
            "type" : "VEC3"
        },
        {
            "bufferView" : 27,
            "componentType" : 5126,
            "count" : 48,
            "type" : "VEC3"
        },
        {
            "bufferView" : 28,
            "componentType" : 5126,
            "count" : 48,
            "type" : "VEC2"
        },
        {
            "bufferView" : 29,
            "componentType" : 5123,
            "count" : 84,
            "type" : "SCALAR"
        },
        {
            "bufferView" : 30,
            "componentType" : 5126,
            "count" : 24,
            "max" : [
                26.707378387451172,
                39.725074768066406,
                -11.5
            ],
            "min" : [
                -33.29031753540039,
                -0.2719990015029907,
                -12
            ],
            "type" : "VEC3"
        },
        {
            "bufferView" : 31,
            "componentType" : 5126,
            "count" : 24,
            "type" : "VEC3"
        },
        {
            "bufferView" : 32,
            "componentType" : 5126,
            "count" : 24,
            "type" : "VEC2"
        },
        {
            "bufferView" : 33,
            "componentType" : 5126,
            "count" : 48,
            "max" : [
                26.707378387451172,
                39.725074768066406,
                -3.5
            ],
            "min" : [
                -18.797760009765625,
                -0.2719990015029907,
                -4
            ],
            "type" : "VEC3"
        },
        {
            "bufferView" : 34,
            "componentType" : 5126,
            "count" : 48,
            "type" : "VEC3"
        },
        {
            "bufferView" : 35,
            "componentType" : 5126,
            "count" : 48,
            "type" : "VEC2"
        },
        {
            "bufferView" : 36,
            "componentType" : 5123,
            "count" : 84,
            "type" : "SCALAR"
        },
        {
            "bufferView" : 37,
            "componentType" : 5126,
            "count" : 4,
            "max" : [
                26.707378387451172,
                39.76042556762695,
                0
            ],
            "min" : [
                -33.29031753540039,
                -0.2719990015029907,
                -0.00447099981829524
            ],
            "type" : "VEC3"
        },
        {
            "bufferView" : 38,
            "componentType" : 5126,
            "count" : 4,
            "type" : "VEC3"
        },
        {
            "bufferView" : 39,
            "componentType" : 5126,
            "count" : 4,
            "type" : "VEC2"
        },
        {
            "bufferView" : 40,
            "componentType" : 5123,
            "count" : 6,
            "type" : "SCALAR"
        }
    ],
    "bufferViews" : [
        {
            "buffer" : 0,
            "byteLength" : 1248,
            "byteOffset" : 0
        },
        {
            "buffer" : 0,
            "byteLength" : 1248,
            "byteOffset" : 1248
        },
        {
            "buffer" : 0,
            "byteLength" : 832,
            "byteOffset" : 2496
        },
        {
            "buffer" : 0,
            "byteLength" : 408,
            "byteOffset" : 3328
        },
        {
            "buffer" : 0,
            "byteLength" : 288,
            "byteOffset" : 3736
        },
        {
            "buffer" : 0,
            "byteLength" : 288,
            "byteOffset" : 4024
        },
        {
            "buffer" : 0,
            "byteLength" : 192,
            "byteOffset" : 4312
        },
        {
            "buffer" : 0,
            "byteLength" : 72,
            "byteOffset" : 4504
        },
        {
            "buffer" : 0,
            "byteLength" : 288,
            "byteOffset" : 4576
        },
        {
            "buffer" : 0,
            "byteLength" : 288,
            "byteOffset" : 4864
        },
        {
            "buffer" : 0,
            "byteLength" : 192,
            "byteOffset" : 5152
        },
        {
            "buffer" : 0,
            "byteLength" : 3468,
            "byteOffset" : 5344
        },
        {
            "buffer" : 0,
            "byteLength" : 3468,
            "byteOffset" : 8812
        },
        {
            "buffer" : 0,
            "byteLength" : 2312,
            "byteOffset" : 12280
        },
        {
            "buffer" : 0,
            "byteLength" : 960,
            "byteOffset" : 14592
        },
        {
            "buffer" : 0,
            "byteLength" : 1632,
            "byteOffset" : 15552
        },
        {
            "buffer" : 0,
            "byteLength" : 1632,
            "byteOffset" : 17184
        },
        {
            "buffer" : 0,
            "byteLength" : 1088,
            "byteOffset" : 18816
        },
        {
            "buffer" : 0,
            "byteLength" : 408,
            "byteOffset" : 19904
        },
        {
            "buffer" : 0,
            "byteLength" : 288,
            "byteOffset" : 20312
        },
        {
            "buffer" : 0,
            "byteLength" : 288,
            "byteOffset" : 20600
        },
        {
            "buffer" : 0,
            "byteLength" : 192,
            "byteOffset" : 20888
        },
        {
            "buffer" : 0,
            "byteLength" : 72,
            "byteOffset" : 21080
        },
        {
            "buffer" : 0,
            "byteLength" : 288,
            "byteOffset" : 21152
        },
        {
            "buffer" : 0,
            "byteLength" : 288,
            "byteOffset" : 21440
        },
        {
            "buffer" : 0,
            "byteLength" : 192,
            "byteOffset" : 21728
        },
        {
            "buffer" : 0,
            "byteLength" : 576,
            "byteOffset" : 21920
        },
        {
            "buffer" : 0,
            "byteLength" : 576,
            "byteOffset" : 22496
        },
        {
            "buffer" : 0,
            "byteLength" : 384,
            "byteOffset" : 23072
        },
        {
            "buffer" : 0,
            "byteLength" : 168,
            "byteOffset" : 23456
        },
        {
            "buffer" : 0,
            "byteLength" : 288,
            "byteOffset" : 23624
        },
        {
            "buffer" : 0,
            "byteLength" : 288,
            "byteOffset" : 23912
        },
        {
            "buffer" : 0,
            "byteLength" : 192,
            "byteOffset" : 24200
        },
        {
            "buffer" : 0,
            "byteLength" : 576,
            "byteOffset" : 24392
        },
        {
            "buffer" : 0,
            "byteLength" : 576,
            "byteOffset" : 24968
        },
        {
            "buffer" : 0,
            "byteLength" : 384,
            "byteOffset" : 25544
        },
        {
            "buffer" : 0,
            "byteLength" : 168,
            "byteOffset" : 25928
        },
        {
            "buffer" : 0,
            "byteLength" : 48,
            "byteOffset" : 26096
        },
        {
            "buffer" : 0,
            "byteLength" : 48,
            "byteOffset" : 26144
        },
        {
            "buffer" : 0,
            "byteLength" : 32,
            "byteOffset" : 26192
        },
        {
            "buffer" : 0,
            "byteLength" : 12,
            "byteOffset" : 26224
        }
    ],
    "buffers" : [
        {
            "byteLength" : 26236,
            "uri" : "data:application/octet-stream;base64,"
        }
    ]
}
